# xmcd
#
# Track frame offsets:
#	150
#	94060
#	97735
#	175660
#	179360
#
# Disc length: 3310 seconds
#
# Revision: 2
# Processed by: cddbd v1.5.2PL0 Copyright (c) Steve Scherf et al.
# Submitted via: audiograbber 1.83.01
#
DISCID=2f0cec05
DTITLE=Classic Care Musik für kritische Lebenslagen - CD 3 - Depressive Grundst
DTITLE=immung
DYEAR=1998
DGENRE=Meditation
TTITLE0=Haydn: Simfonie Nr. 94 G-Dur, Satz 2 "Mit dem Paukenschlag - Tschaikows
TTITLE0=ky: Der Nußknacker: Blumenwalzer - Mozart: Konzert für Flöte, Harfe und
TTITLE0=Orchester C-Dur KV 299 II. Andantino 
TTITLE1=Regenwald
TTITLE2=Liszt: LIebestraum Nr. 3, - Ponchielli: Tanz der Stunden aus  "La Gioco
TTITLE2=nda" - Boccherini: Menuett
TTITLE3=Regenwald
TTITLE4=Bernhard: Was betrübst du dich, meine Seele (Psalm 4215 -  Dittersdorf:
TTITLE4=Concerto A - Dur für Harfe, zwei Oboen, zwei Hörner und Streichorchest
TTITLE4=er - Mozart: Laudate Dominium KV 329 F-Dur aus "Vesperae solennes de Co
TTITLE4=nfessores"
EXTD=
EXTT0=
EXTT1=
EXTT2=
EXTT3=
EXTT4=
PLAYORDER=
